<svg width="82" height="82" viewBox="0 0 82 82" fill="none" xmlns="http://www.w3.org/2000/svg">
<circle cx="41" cy="41" r="40" fill="#FF9F9F" stroke="#C90101" stroke-width="2"/>
<path d="M36.8144 28.0636H33.7614V21.9576C33.7614 21.7062 33.8235 21.4588 33.9421 21.2373C34.0608 21.0157 34.2323 20.8269 34.4414 20.6875L41.3107 16.108L43.0036 18.6481L36.8144 22.7742V28.0636Z" fill="#F9E109"/>
<path d="M43.0044 18.6496L36.8144 22.7712V28.0606H33.7614V21.9545C33.7614 21.7037 33.8235 21.4568 33.942 21.2357C34.0605 21.0147 34.2318 20.8264 34.4407 20.6875L35.2115 20.1685C35.8262 20.3715 36.4804 20.4255 37.12 20.3259C37.7597 20.2264 38.3665 19.9762 38.8904 19.596L42.0885 17.2681L43.0044 18.6496Z" fill="#FCBC04"/>
<path d="M43.6837 60.3769H26.892L23.839 33.6629H46.7367L43.6837 60.3769Z" fill="#F8664F"/>
<path d="M25.3655 30.6098H45.2102C45.6151 30.6098 46.0033 30.7707 46.2896 31.057C46.5759 31.3432 46.7367 31.7315 46.7367 32.1364V33.6629H23.839V32.1364C23.839 31.7315 23.9998 31.3432 24.2861 31.057C24.5724 30.7707 24.9606 30.6098 25.3655 30.6098Z" fill="#84D2F4"/>
<path d="M29.1818 27.5568H41.3939C41.7988 27.5568 42.187 27.7177 42.4733 28.0039C42.7596 28.2902 42.9204 28.6785 42.9204 29.0833V30.6099H27.6553V29.0833C27.6553 28.6785 27.8161 28.2902 28.1024 28.0039C28.3887 27.7177 28.7769 27.5568 29.1818 27.5568Z" fill="#84D2F4"/>
<path d="M46.4772 35.9526H29.1818C33.5818 40.3522 39.4107 43.0325 45.6147 43.5089L43.6837 60.3769H26.892L23.839 33.6629H46.7367L46.4772 35.9526Z" fill="#CC5144"/>
<path d="M46.7367 32.1364V33.6629H23.839V32.1364C23.8402 31.7319 24.0014 31.3443 24.2874 31.0583C24.5734 30.7723 24.961 30.6111 25.3655 30.6099C25.3667 31.0143 25.5279 31.4019 25.8139 31.6879C26.1 31.974 26.4875 32.1352 26.892 32.1364H46.7367Z" fill="#57B7EB"/>
<path d="M42.9204 29.0833V30.6099H27.6553V29.0833C27.6565 28.6789 27.8177 28.2913 28.1037 28.0053C28.3897 27.7192 28.7773 27.558 29.1818 27.5568C29.183 27.9613 29.3442 28.3489 29.6302 28.6349C29.9162 28.9209 30.3038 29.0821 30.7083 29.0833H42.9204Z" fill="#57B7EB"/>
<path d="M51.3163 31.3731L49.7897 50.4545L49.0265 58.8504L52.8428 59.6136L55.1326 32.1364L52.8428 30.9151L51.3163 31.3731Z" fill="#E59730"/>
<path d="M46.7367 35.1894L48.2632 53.5076H52.8428L51.3163 34.4261L49.0265 32.1364L46.7367 35.1894Z" fill="#FCBC04"/>
<path d="M52.8428 53.5076H48.2632L46.7367 35.1894L47.6374 33.9911L49.0265 45.1117H49.7898L50.6217 40.2574L51.3163 39.7689L51.7819 40.2345L52.8428 53.5076Z" fill="#E59730"/>
<path d="M45.2102 37.4792L42.9487 36.7022L42.1572 39.0057L45.9735 51.2178L49.5356 49.6913L45.2102 37.4792Z" fill="#F9E109"/>
<path d="M49.5379 49.6913L45.9735 51.2178L42.1572 39.0057L42.9357 36.7541L44.3325 40.952C45.1473 43.4027 46.6463 45.5691 48.6525 47.1954L49.5379 49.6913Z" fill="#FCBC04"/>
<path d="M58.9488 32.1364L55.8355 46.6383H58.9488L61.2386 35.9526L58.9488 32.1364Z" fill="#F9E109"/>
<path d="M58.8328 39.2537L60.054 33.9735L58.9488 32.1364L55.8355 46.6383H58.9488L59.9892 41.7847C59.5452 41.5484 59.1914 41.1725 58.9824 40.715C58.7734 40.2576 58.7209 39.744 58.8328 39.2537V39.2537Z" fill="#FCBC04"/>
<path d="M37.5776 36.7159L42.9204 51.2178L45.9735 50.4546L40.6307 36.7159H37.5776Z" fill="#F9E109"/>
<path d="M37.5776 36.7159L42.9204 51.2178L44.447 50.8362L38.9958 36.7159H37.5776Z" fill="#FCBC04"/>
<path d="M54.3693 34.4261L52.0795 52.7443L55.1326 51.9811L58.1856 35.9526L54.3693 34.4261Z" fill="#F9E109"/>
<path d="M56.4454 45.0888L55.1326 51.9811L52.0795 52.7443L54.3693 34.4261L55.85 35.0215L55.2394 43.5929C55.2156 43.9481 55.3265 44.2993 55.55 44.5766C55.7735 44.8538 56.0931 45.0367 56.4454 45.0888Z" fill="#FCBC04"/>
<path d="M53.606 53.5076H50.553L51.3163 39.7689L54.3693 40.5322L53.606 53.5076Z" fill="#F9E109"/>
<path d="M52.6382 46.3078L52.8107 40.1429L51.3163 39.7689L50.553 53.5076H53.606L53.906 48.4136C53.5164 48.2194 53.1901 47.9182 52.9656 47.5452C52.7411 47.1722 52.6275 46.743 52.6382 46.3078V46.3078Z" fill="#FCBC04"/>
<path d="M57.4223 43.5852C57.4223 46.536 54.3472 48.928 50.553 48.928C46.7589 48.928 43.6837 46.536 43.6837 43.5852H39.8674L42.1572 60.3769H58.9488L61.2386 43.5852H57.4223Z" fill="#84D2F4"/>
<path d="M59.3686 57.3239L58.9488 60.3769H42.1572L39.8674 43.5852H43.6837C43.697 44.2311 43.8443 44.8672 44.1162 45.4532C44.3882 46.0392 44.7789 46.5623 45.2636 46.9893C45.7102 49.8688 47.1723 52.4934 49.3855 54.3888C51.5986 56.2842 54.4169 57.3253 57.3307 57.3239H59.3686Z" fill="#57B7EB"/>
<path d="M50.553 57.3239C51.8176 57.3239 52.8428 56.2987 52.8428 55.0341C52.8428 53.7695 51.8176 52.7443 50.553 52.7443C49.2884 52.7443 48.2632 53.7695 48.2632 55.0341C48.2632 56.2987 49.2884 57.3239 50.553 57.3239Z" fill="#F9E109"/>
<path d="M52.4535 56.3087C52.1799 56.7158 51.7828 57.0243 51.3207 57.1888C50.8586 57.3533 50.3559 57.365 49.8866 57.2222C49.4173 57.0795 49.0063 56.7898 48.7141 56.3959C48.4218 56.002 48.2638 55.5246 48.2632 55.0341C48.2617 54.5668 48.4058 54.1106 48.6754 53.7289C49.7604 54.8199 51.0424 55.6953 52.4535 56.3087Z" fill="#FCBC04"/>
<path d="M39.8674 52.7443H26.1288C25.3191 52.7443 24.5425 52.4227 23.97 51.8501C23.3974 51.2776 23.0757 50.501 23.0757 49.6913C23.0757 48.8816 23.3974 48.105 23.97 47.5325C24.5425 46.9599 25.3191 46.6383 26.1288 46.6383H39.8674C40.6771 46.6383 41.4537 46.9599 42.0262 47.5325C42.5988 48.105 42.9204 48.8816 42.9204 49.6913C42.9204 50.501 42.5988 51.2776 42.0262 51.8501C41.4537 52.4227 40.6771 52.7443 39.8674 52.7443Z" fill="#F89C8D"/>
<path d="M41.3939 51.2178C41.8261 51.2174 42.2531 51.1237 42.6457 50.943C42.4983 51.2818 42.2886 51.5899 42.0274 51.8513C41.4532 52.422 40.6769 52.7429 39.8674 52.7443H26.1288C25.5246 52.7448 24.9338 52.566 24.4313 52.2306C23.9288 51.8951 23.5371 51.4181 23.3059 50.86C23.0746 50.3018 23.0141 49.6876 23.1321 49.095C23.2501 48.5025 23.5413 47.9583 23.9687 47.5313C24.2301 47.2701 24.5382 47.0604 24.877 46.913C25.2696 46.7324 25.6966 46.6386 26.1288 46.6383H39.8674C40.6095 46.6393 41.3258 46.9107 41.8824 47.4015C42.2624 47.7298 42.5516 48.1503 42.722 48.6227C42.5823 48.8748 42.3776 49.0848 42.1293 49.2311C41.8811 49.3774 41.5981 49.4546 41.31 49.4547C41.0586 49.4546 40.8106 49.3972 40.5849 49.2868C40.3626 49.1739 40.1167 49.115 39.8674 49.115C39.6181 49.115 39.3723 49.1739 39.1499 49.2868L37.5318 50.0958C37.3095 50.2087 37.0637 50.2676 36.8144 50.2676C36.565 50.2676 36.3192 50.2087 36.0969 50.0958L34.4788 49.2868C34.2565 49.1739 34.0107 49.115 33.7613 49.115C33.512 49.115 33.2662 49.1739 33.0439 49.2868L31.4258 50.0958C31.2035 50.2087 30.9576 50.2676 30.7083 50.2676C30.459 50.2676 30.2132 50.2087 29.9909 50.0958L28.3727 49.2868C28.1504 49.1739 27.9046 49.115 27.6553 49.115C27.4059 49.115 27.1601 49.1739 26.9378 49.2868L25.709 49.905C25.5671 49.973 25.4188 50.0267 25.2663 50.0653C25.5516 50.4254 25.9147 50.7161 26.3285 50.9158C26.7423 51.1154 27.1959 51.2186 27.6553 51.2178H41.3939Z" fill="#F8664F"/>
<path d="M21.5492 55.7973H44.447V57.3239C44.447 58.1336 44.1253 58.9101 43.5527 59.4827C42.9802 60.0552 42.2036 60.3769 41.3939 60.3769H24.6023C23.7925 60.3769 23.016 60.0552 22.4434 59.4827C21.8709 58.9101 21.5492 58.1336 21.5492 57.3239V55.7973Z" fill="#FCBC04"/>
<path d="M35.1352 55.7973L34.5246 56.5606L33.914 55.7973H35.1352Z" fill="#E59730"/>
<path d="M35.1352 55.7973L34.5246 56.5606L33.914 55.7973H35.1352Z" fill="#E59730"/>
<path d="M41.3939 55.7973H24.6023C24.1974 55.7973 23.8091 55.6365 23.5229 55.3502C23.2366 55.064 23.0757 54.6757 23.0757 54.2708C23.0757 53.866 23.2366 53.4777 23.5229 53.1914C23.8091 52.9051 24.1974 52.7443 24.6023 52.7443H41.3939C41.7988 52.7443 42.1871 52.9051 42.4733 53.1914C42.7596 53.4777 42.9204 53.866 42.9204 54.2708C42.9204 54.6757 42.7596 55.064 42.4733 55.3502C42.1871 55.6365 41.7988 55.7973 41.3939 55.7973Z" fill="#CC5144"/>
<path d="M35.2879 56.5606L32.2348 52.7443H38.3409L35.2879 56.5606Z" fill="#F7F754"/>
<path d="M35.0261 53.5625L34.372 52.7443H32.2348L35.2879 56.5606L37.0166 54.3998C36.6414 54.4365 36.2629 54.3792 35.9154 54.233C35.5679 54.0869 35.2622 53.8564 35.0261 53.5625V53.5625Z" fill="#F9E109"/>
<path d="M22.3125 46.6383C22.3124 47.097 22.4401 47.5466 22.6813 47.9368C22.9224 48.3269 23.2676 48.6422 23.6779 48.8471L24.2611 49.1387C24.6039 49.3104 24.9821 49.3997 25.3655 49.3997C25.7489 49.3997 26.1271 49.3104 26.4699 49.1387L27.698 48.5281C27.9217 48.4163 28.1684 48.3581 28.4185 48.3581C28.6686 48.3581 28.9153 48.4163 29.139 48.5281L30.751 49.3341C30.9748 49.4459 31.2215 49.5041 31.4716 49.5041C31.7217 49.5041 31.9683 49.4459 32.1921 49.3341L33.8041 48.5281C34.0278 48.4163 34.2745 48.3581 34.5246 48.3581C34.7747 48.3581 35.0214 48.4163 35.2451 48.5281L36.8571 49.3341C37.0808 49.4459 37.3275 49.5041 37.5776 49.5041C37.8277 49.5041 38.0744 49.4459 38.2981 49.3341L39.9101 48.5281C40.1339 48.4163 40.3806 48.3581 40.6307 48.3581C40.8808 48.3581 41.1274 48.4163 41.3512 48.5281C41.5971 48.651 41.8704 48.7089 42.145 48.6964C42.4196 48.6839 42.6865 48.6014 42.9202 48.4567C43.154 48.3119 43.3468 48.1099 43.4805 47.8696C43.6141 47.6294 43.684 47.3589 43.6837 47.084V46.6383H22.3125Z" fill="#C4F236"/>
<path d="M36.8144 39.0057H29.1818C27.1575 39.0057 25.2161 39.8098 23.7848 41.2412C22.3534 42.6726 21.5492 44.614 21.5492 46.6383H44.447C44.447 44.614 43.6428 42.6726 42.2114 41.2412C40.78 39.8098 38.8387 39.0057 36.8144 39.0057Z" fill="#FCBC04"/>
<path d="M44.4469 46.6383H21.5492C21.5499 44.971 22.0965 43.3499 23.1054 42.0226C24.1143 40.6953 25.53 39.7349 27.1363 39.2881C27.5329 40.7413 28.3963 42.0238 29.5934 42.9382C30.7905 43.8526 32.255 44.3481 33.7613 44.3485H44.0958C44.3298 45.0892 44.4482 45.8615 44.4469 46.6383V46.6383Z" fill="#E59730"/>
<path d="M44.447 57.3239C44.447 58.1336 44.1253 58.9101 43.5527 59.4827C42.9802 60.0552 42.2036 60.3769 41.3939 60.3769H24.6023C23.7925 60.3769 23.016 60.0552 22.4434 59.4827C21.8709 58.9101 21.5492 58.1336 21.5492 57.3239V55.7973H23.175C23.3431 56.4528 23.7247 57.0337 24.2596 57.4483C24.7944 57.8629 25.452 58.0877 26.1288 58.0871H42.1572C42.9834 58.0904 43.7879 57.8223 44.447 57.3239Z" fill="#E59730"/>
<path d="M43.6837 46.6383V47.081C43.687 47.1891 43.6742 47.2972 43.6455 47.4015H23.61C23.8308 47.6895 24.1156 47.9221 24.442 48.0808L25.0221 48.3785C25.3664 48.5479 25.745 48.636 26.1288 48.636C26.5125 48.636 26.8912 48.5479 27.2355 48.3785L28.4643 47.7602C28.6867 47.6474 28.9325 47.5885 29.1818 47.5885C29.4311 47.5885 29.677 47.6474 29.8993 47.7602L31.5174 48.5693C31.7397 48.6822 31.9855 48.741 32.2348 48.741C32.4842 48.741 32.73 48.6822 32.9523 48.5693L34.5704 47.7602C34.7927 47.6474 35.0385 47.5885 35.2879 47.5885C35.5372 47.5885 35.783 47.6474 36.0053 47.7602L37.6234 48.5693C37.8457 48.6822 38.0916 48.741 38.3409 48.741C38.5902 48.741 38.8361 48.6822 39.0584 48.5693L40.6765 47.7602C40.8988 47.6474 41.1446 47.5885 41.3939 47.5885C41.6433 47.5885 41.8891 47.6474 42.1114 47.7602C42.3315 47.8705 42.5741 47.9285 42.8203 47.9298C43.0665 47.9311 43.3097 47.8757 43.5311 47.7679C43.4 48.0438 43.1936 48.2769 42.9356 48.4403C42.6776 48.6038 42.3786 48.6908 42.0732 48.6914C41.8219 48.6914 41.5739 48.6339 41.3481 48.5235C41.1258 48.4106 40.88 48.3518 40.6307 48.3518C40.3813 48.3518 40.1355 48.4106 39.9132 48.5235L38.2951 49.3326C38.0728 49.4455 37.827 49.5043 37.5776 49.5043C37.3283 49.5043 37.0825 49.4455 36.8602 49.3326L35.2421 48.5235C35.0198 48.4106 34.7739 48.3518 34.5246 48.3518C34.2753 48.3518 34.0295 48.4106 33.8071 48.5235L32.189 49.3326C31.9667 49.4455 31.7209 49.5043 31.4716 49.5043C31.2222 49.5043 30.9764 49.4455 30.7541 49.3326L29.136 48.5235C28.9137 48.4106 28.6679 48.3518 28.4185 48.3518C28.1692 48.3518 27.9234 48.4106 27.7011 48.5235L26.4722 49.1417C26.1279 49.3112 25.7493 49.3993 25.3655 49.3993C24.9818 49.3993 24.6031 49.3112 24.2588 49.1417L23.6787 48.8441C23.2673 48.6412 22.9212 48.3268 22.6796 47.9369C22.4381 47.5469 22.3109 47.097 22.3125 46.6383H43.6837Z" fill="#A1D51C"/>
<path d="M53.606 55.0341C53.606 54.4302 53.427 53.84 53.0915 53.3379C52.7561 52.8358 52.2792 52.4445 51.7214 52.2134C51.1635 51.9824 50.5496 51.9219 49.9574 52.0397C49.3652 52.1575 48.8212 52.4483 48.3942 52.8753C47.9672 53.3022 47.6765 53.8462 47.5587 54.4385C47.4409 55.0307 47.5013 55.6445 47.7324 56.2024C47.9635 56.7603 48.3548 57.2371 48.8569 57.5726C49.3589 57.908 49.9492 58.0871 50.553 58.0871C51.3627 58.0871 52.1393 57.7654 52.7118 57.1929C53.2844 56.6203 53.606 55.8438 53.606 55.0341ZM49.0265 55.0341C49.0265 54.7322 49.116 54.437 49.2838 54.186C49.4515 53.935 49.6899 53.7393 49.9689 53.6238C50.2478 53.5082 50.5547 53.478 50.8508 53.5369C51.1469 53.5958 51.4189 53.7412 51.6324 53.9547C51.8459 54.1682 51.9913 54.4402 52.0502 54.7363C52.1091 55.0324 52.0789 55.3393 51.9633 55.6182C51.8478 55.8972 51.6521 56.1356 51.4011 56.3033C51.1501 56.4711 50.8549 56.5606 50.553 56.5606C50.1482 56.5606 49.7599 56.3998 49.4736 56.1135C49.1873 55.8272 49.0265 55.4389 49.0265 55.0341Z" fill="#464A51"/>
<path d="M59.7999 54.1319C59.5994 54.1046 59.3962 54.1579 59.2351 54.2803C59.0739 54.4027 58.9679 54.584 58.9404 54.7845L58.2825 59.6136H46.7367C46.5343 59.6136 46.3402 59.6941 46.197 59.8372C46.0539 59.9803 45.9735 60.1745 45.9735 60.3769C45.9735 60.5793 46.0539 60.7735 46.197 60.9166C46.3402 61.0597 46.5343 61.1402 46.7367 61.1402H58.9488C59.1334 61.1402 59.3118 61.0733 59.4509 60.9519C59.5899 60.8305 59.6803 60.6629 59.7052 60.4799L60.454 54.9914C60.4675 54.892 60.4613 54.7909 60.4358 54.6939C60.4102 54.5969 60.3658 54.5059 60.3051 54.4261C60.2443 54.3462 60.1684 54.2792 60.0818 54.2287C59.9951 54.1782 59.8993 54.1454 59.7999 54.1319V54.1319Z" fill="#464A51"/>
<path d="M61.8134 43.083C61.7417 43.001 61.6534 42.9353 61.5542 42.8903C61.4551 42.8453 61.3475 42.822 61.2386 42.822H57.6513L58.9321 36.0954C58.9485 36.0061 58.9485 35.9145 58.9321 35.8252L59.2839 34.1872L60.4235 36.087L59.506 40.3956C59.4637 40.5934 59.5017 40.8 59.6116 40.9699C59.7215 41.1398 59.8944 41.2591 60.0922 41.3016C60.1452 41.3127 60.1991 41.3183 60.2533 41.3183C60.4276 41.318 60.5966 41.2581 60.7322 41.1484C60.8677 41.0387 60.9616 40.8859 60.9982 40.7154L61.9843 36.1122C62.0255 35.923 61.9927 35.7253 61.8927 35.5596L59.603 31.7433C59.5244 31.612 59.4082 31.5074 59.2695 31.443C59.1308 31.3786 58.9759 31.3573 58.8249 31.382C58.6739 31.4067 58.5339 31.4761 58.4229 31.5814C58.3119 31.6866 58.2351 31.8228 58.2024 31.9723L57.575 34.8841L54.6494 33.714C54.5413 33.6708 54.4248 33.6529 54.3087 33.6616C54.1926 33.6703 54.0801 33.7055 53.9797 33.7645C53.8793 33.8234 53.7937 33.9045 53.7295 34.0016C53.6652 34.0987 53.6241 34.2092 53.6091 34.3246L52.9756 39.3911L52.4665 39.2637L52.0795 34.3651C52.0639 34.1988 51.9942 34.0422 51.8811 33.9193L52.0337 31.9539L52.7596 31.7364L54.7716 32.8096C54.8601 32.8586 54.9575 32.8895 55.0581 32.9006C55.1587 32.9116 55.2605 32.9025 55.3576 32.8739C55.4547 32.8452 55.5451 32.7975 55.6235 32.7335C55.702 32.6696 55.767 32.5907 55.8146 32.5014C55.8623 32.4121 55.8918 32.3142 55.9013 32.2135C55.9108 32.1127 55.9001 32.0111 55.8699 31.9144C55.8398 31.8178 55.7907 31.7282 55.7256 31.6507C55.6604 31.5732 55.5805 31.5095 55.4905 31.4632L53.2008 30.242C53.0231 30.147 52.8152 30.1262 52.6222 30.1839L51.0957 30.6419C50.9484 30.686 50.8178 30.7736 50.7211 30.8932C50.6244 31.0127 50.5661 31.1587 50.5538 31.312L50.4591 32.492L49.5646 31.5967C49.4873 31.5197 49.3944 31.4601 49.2921 31.422C49.1898 31.3839 49.0805 31.3682 48.9717 31.376C48.8628 31.3837 48.7568 31.4147 48.661 31.4669C48.5651 31.5191 48.4815 31.5912 48.4159 31.6784L47.5 32.8996V32.1364C47.5 31.5291 47.2588 30.9467 46.8293 30.5172C46.3999 30.0878 45.8175 29.8466 45.2102 29.8466H43.6837V29.0833C43.6837 28.476 43.4425 27.8936 43.013 27.4642C42.5836 27.0348 42.0012 26.7936 41.3939 26.7936H37.5776V23.1833L43.4273 19.2831C43.5107 19.2275 43.5823 19.156 43.6381 19.0727C43.6938 18.9894 43.7326 18.8959 43.7523 18.7976C43.7719 18.6993 43.772 18.5981 43.7525 18.4997C43.733 18.4014 43.6943 18.3079 43.6387 18.2245L41.9458 15.6843C41.8901 15.6009 41.8186 15.5293 41.7353 15.4735C41.652 15.4178 41.5586 15.379 41.4602 15.3593C41.3619 15.3397 41.2607 15.3396 41.1624 15.3591C41.0641 15.3786 40.9705 15.4173 40.8871 15.4729L34.0178 20.0525C33.7038 20.2612 33.4464 20.5444 33.2685 20.8768C33.0905 21.2092 32.9977 21.5805 32.9981 21.9576V26.7936H29.1818C28.5745 26.7936 27.9921 27.0348 27.5627 27.4642C27.1333 27.8936 26.892 28.476 26.892 29.0833V29.8466H25.3655C24.7582 29.8466 24.1758 30.0878 23.7464 30.5172C23.317 30.9467 23.0758 31.5291 23.0758 32.1364V33.6629C23.0758 33.6781 23.5337 37.6837 23.5337 37.6837C23.5549 37.8698 23.6437 38.0416 23.7833 38.1664C23.9229 38.2913 24.1036 38.3604 24.2909 38.3607C24.3199 38.3608 24.349 38.3591 24.3779 38.3554C24.5788 38.3324 24.7625 38.2306 24.8884 38.0723C25.0143 37.914 25.0723 37.7122 25.0495 37.5112L24.6939 34.4261H30.7083C30.9108 34.4261 31.1049 34.3457 31.248 34.2026C31.3912 34.0594 31.4716 33.8653 31.4716 33.6629C31.4716 33.4604 31.3912 33.2663 31.248 33.1232C31.1049 32.98 30.9108 32.8996 30.7083 32.8996H24.6023V32.1364C24.6023 31.9339 24.6827 31.7398 24.8258 31.5967C24.969 31.4535 25.1631 31.3731 25.3655 31.3731H45.2102C45.4127 31.3731 45.6068 31.4535 45.7499 31.5967C45.8931 31.7398 45.9735 31.9339 45.9735 32.1364V32.8996H33.7614C33.5589 32.8996 33.3648 32.98 33.2217 33.1232C33.0785 33.2663 32.9981 33.4604 32.9981 33.6629C32.9981 33.8653 33.0785 34.0594 33.2217 34.2026C33.3648 34.3457 33.5589 34.4261 33.7614 34.4261H46.3551L46.1261 34.7314C46.013 34.8806 45.9587 35.0661 45.9735 35.2527L46.2025 38.0043L45.9262 37.2242C45.8879 37.116 45.8256 37.0177 45.7441 36.9368C45.6625 36.856 45.5638 36.7945 45.4552 36.7571L43.1937 35.9801C43.0023 35.9145 42.7927 35.9276 42.6109 36.0165C42.4291 36.1053 42.2901 36.2628 42.2244 36.4541L41.8114 37.6547L41.339 36.4396C41.2835 36.2967 41.1862 36.1738 41.0599 36.0869C40.9336 36.0001 40.784 35.9533 40.6307 35.9526H37.5776C37.4546 35.9526 37.3334 35.9822 37.2243 36.0391C37.1152 36.0959 37.0215 36.1783 36.9511 36.2792C36.8807 36.3801 36.8357 36.4965 36.82 36.6185C36.8043 36.7406 36.8184 36.8646 36.8609 36.98L37.3365 38.2691C37.1624 38.2577 36.9907 38.2424 36.8144 38.2424H29.1818C27.5352 38.2408 25.9247 38.7256 24.5527 39.6361C24.4691 39.6916 24.3973 39.7629 24.3413 39.8461C24.2854 39.9293 24.2463 40.0226 24.2264 40.1209C24.1863 40.3194 24.2266 40.5257 24.3386 40.6944C24.4505 40.8631 24.6249 40.9805 24.8234 41.0206C25.0218 41.0608 25.2281 41.0204 25.3968 40.9085C26.5188 40.1642 27.8355 39.7678 29.1818 39.7689H36.8144C38.5035 39.771 40.1328 40.3945 41.3917 41.5206C42.6507 42.6466 43.4513 44.1966 43.641 45.875H22.3552C22.4753 44.7947 22.8516 43.7588 23.4528 42.8533C23.5537 42.6845 23.5856 42.4834 23.5418 42.2917C23.4981 42.1 23.382 41.9326 23.2179 41.8244C23.0538 41.7161 22.8542 41.6754 22.6608 41.7107C22.4674 41.7459 22.2951 41.8545 22.1797 42.0137C21.2703 43.3846 20.7856 44.9932 20.786 46.6382C20.786 46.8407 20.8664 47.0348 21.0095 47.178C21.1527 47.3211 21.3468 47.4015 21.5492 47.4015H21.6454C21.7756 47.9414 22.0442 48.438 22.4247 48.8425C22.3544 49.1201 22.3167 49.405 22.3125 49.6913C22.3134 50.6795 22.6994 51.6285 23.3887 52.3367C22.9438 52.6077 22.607 53.0251 22.4363 53.5173C22.2655 54.0095 22.2714 54.5458 22.4529 55.0341H21.5492C21.3468 55.0341 21.1527 55.1145 21.0095 55.2576C20.8664 55.4008 20.786 55.5949 20.786 55.7973V57.3239C20.7872 58.3356 21.1897 59.3056 21.9051 60.021C22.6205 60.7365 23.5905 61.1389 24.6023 61.1401H26.892C27.0945 61.1401 27.2886 61.0597 27.4317 60.9166C27.5749 60.7735 27.6553 60.5793 27.6553 60.3769C27.6553 60.1745 27.5749 59.9803 27.4317 59.8372C27.2886 59.694 27.0945 59.6136 26.892 59.6136H24.6023C23.995 59.6136 23.4126 59.3724 22.9832 58.943C22.5537 58.5136 22.3125 57.9311 22.3125 57.3239V56.5606H34.3101L34.6918 57.0369C34.7633 57.1263 34.854 57.1985 34.9572 57.2481C35.0604 57.2977 35.1734 57.3235 35.2879 57.3235C35.4024 57.3235 35.5154 57.2977 35.6186 57.2481C35.7218 57.1985 35.8125 57.1263 35.884 57.0369L38.708 53.5076H41.3939C41.5964 53.5076 41.7905 53.588 41.9336 53.7311C42.0768 53.8743 42.1572 54.0684 42.1572 54.2708C42.1572 54.4733 42.0768 54.6674 41.9336 54.8105C41.7905 54.9537 41.5964 55.0341 41.3939 55.0341H39.7148C39.5123 55.0341 39.3182 55.1145 39.1751 55.2576C39.0319 55.4008 38.9515 55.5949 38.9515 55.7973C38.9515 55.9998 39.0319 56.1939 39.1751 56.337C39.3182 56.4802 39.5123 56.5606 39.7148 56.5606H43.6837V57.3239C43.6837 57.9311 43.4425 58.5136 43.013 58.943C42.5836 59.3724 42.0012 59.6136 41.3939 59.6136H29.9451C29.7426 59.6136 29.5485 59.694 29.4054 59.8372C29.2622 59.9803 29.1818 60.1745 29.1818 60.3769C29.1818 60.5793 29.2622 60.7735 29.4054 60.9166C29.5485 61.0597 29.7426 61.1401 29.9451 61.1401H41.3939C42.4057 61.1389 43.3757 60.7365 44.0911 60.021C44.8065 59.3056 45.209 58.3356 45.2102 57.3239V55.7973C45.2102 55.5949 45.1298 55.4008 44.9867 55.2576C44.8435 55.1145 44.6494 55.0341 44.447 55.0341H43.5433C43.7248 54.5458 43.7307 54.0095 43.5599 53.5173C43.3892 53.0251 43.0524 52.6077 42.6075 52.3367C43.2968 51.6285 43.6828 50.6795 43.6837 49.6913C43.6813 49.4207 43.6493 49.1512 43.5883 48.8876C44.0384 48.5129 44.3305 47.9822 44.4065 47.4015H44.447C44.4946 47.3967 44.5416 47.3873 44.5874 47.3733C46.1919 48.9033 48.3364 49.7366 50.553 49.6913C54.4388 49.6913 57.6551 47.3565 58.1261 44.3485H60.3639L59.3534 51.7582C59.34 51.8575 59.3462 51.9585 59.3718 52.0554C59.3974 52.1523 59.4419 52.2433 59.5026 52.323C59.5633 52.4027 59.6392 52.4697 59.7258 52.5201C59.8125 52.5706 59.9082 52.6034 60.0075 52.6168C60.0416 52.622 60.076 52.6246 60.1105 52.6245C60.2951 52.6245 60.4735 52.5576 60.6126 52.4362C60.7516 52.3149 60.842 52.1472 60.8669 51.9643L61.995 43.6883C62.0097 43.5802 62.0011 43.4703 61.9698 43.3659C61.9384 43.2615 61.8851 43.1651 61.8134 43.083V43.083ZM34.5246 21.9576C34.5246 21.8319 34.5556 21.7082 34.6148 21.5975C34.6741 21.4867 34.7598 21.3922 34.8643 21.3225L41.0986 17.1666L41.9458 18.4366L36.3908 22.1377C36.2863 22.2074 36.2006 22.3018 36.1414 22.4126C36.0821 22.5234 36.0511 22.6471 36.0511 22.7727V26.7936H34.5246V21.9576ZM28.4186 29.8466V29.0833C28.4186 28.8809 28.499 28.6868 28.6421 28.5436C28.7852 28.4005 28.9794 28.3201 29.1818 28.3201H41.3939C41.5964 28.3201 41.7905 28.4005 41.9336 28.5436C42.0768 28.6868 42.1572 28.8809 42.1572 29.0833V29.8466H28.4186ZM52.0276 40.7337L53.5702 41.1153L53.1824 47.7083C52.676 47.891 52.1514 48.0189 51.6178 48.09L52.0276 40.7337ZM49.1089 33.2988L50.5775 34.7673L50.9263 39.1263C50.9047 39.1346 50.8835 39.144 50.8629 39.1545C50.7732 39.2216 50.6993 39.3075 50.6466 39.4063C50.5938 39.5051 50.5634 39.6143 50.5576 39.7262L50.0897 48.1396C49.5741 48.1098 49.0627 48.0285 48.5632 47.8969L47.5214 35.4184L49.1089 33.2988ZM38.6729 37.4792H40.1086L40.7955 39.2499C40.2474 38.956 39.668 38.7243 39.0683 38.5592L38.6729 37.4792ZM42.1335 49.4547C42.146 49.533 42.1539 49.612 42.1572 49.6913C42.1572 50.2986 41.9159 50.881 41.4865 51.3104C41.0571 51.7398 40.4747 51.9811 39.8674 51.9811H26.1288C25.5393 51.979 24.9732 51.7497 24.5486 51.3408C24.1239 50.9319 23.8733 50.3749 23.8489 49.7859L23.9192 49.8218C24.3685 50.0451 24.8634 50.1613 25.3651 50.1613C25.8669 50.1613 26.3618 50.0451 26.8111 49.8218L28.0392 49.2112C28.1569 49.1521 28.2868 49.1213 28.4186 49.1213C28.5503 49.1213 28.6802 49.1521 28.7979 49.2112L30.4091 50.0164C30.7392 50.1806 31.1029 50.266 31.4716 50.266C31.8403 50.266 32.2039 50.1806 32.534 50.0164L34.143 49.2081C34.2607 49.1491 34.3906 49.1183 34.5223 49.1183C34.654 49.1183 34.7839 49.1491 34.9017 49.2081L36.5129 50.0134C36.843 50.1775 37.2067 50.263 37.5754 50.263C37.944 50.263 38.3077 50.1775 38.6378 50.0134L40.249 49.2081C40.3668 49.1491 40.4967 49.1183 40.6284 49.1183C40.7601 49.1183 40.89 49.1491 41.0077 49.2081C41.357 49.3816 41.7437 49.4663 42.1335 49.4547V49.4547ZM24.6023 55.0341C24.3998 55.0341 24.2057 54.9537 24.0626 54.8105C23.9194 54.6674 23.839 54.4733 23.839 54.2708C23.839 54.0684 23.9194 53.8743 24.0626 53.7311C24.2057 53.588 24.3998 53.5076 24.6023 53.5076H31.8677L33.0889 55.0341H24.6023ZM35.2879 55.3394L33.8232 53.5076H36.7526L35.2879 55.3394ZM42.5182 47.806C42.49 47.8212 42.461 47.8347 42.4312 47.8465C42.4254 47.8461 42.4195 47.8461 42.4136 47.8465C42.4037 47.8503 42.3984 47.8587 42.3885 47.8625C42.278 47.9099 42.1585 47.9325 42.0383 47.9286C41.9182 47.9248 41.8004 47.8947 41.6931 47.8404C41.363 47.6762 40.9994 47.5908 40.6307 47.5908C40.262 47.5908 39.8983 47.6762 39.5682 47.8404L37.9593 48.6479C37.8416 48.707 37.7117 48.7378 37.5799 48.7378C37.4482 48.7378 37.3183 48.707 37.2006 48.6479L35.5894 47.8427C35.2593 47.6785 34.8956 47.5931 34.5269 47.5931C34.1582 47.5931 33.7946 47.6785 33.4645 47.8427L31.8532 48.6479C31.7355 48.707 31.6056 48.7378 31.4739 48.7378C31.3422 48.7378 31.2123 48.707 31.0945 48.6479L29.4833 47.8427C29.1532 47.6785 28.7895 47.5931 28.4208 47.5931C28.0522 47.5931 27.6885 47.6785 27.3584 47.8427L26.1311 48.4533C25.8939 48.5711 25.6327 48.6325 25.3678 48.6325C25.103 48.6325 24.8417 48.5711 24.6046 48.4533L24.0191 48.1648C23.6932 47.9982 23.4302 47.7304 23.2696 47.4015H42.8533C42.788 47.5687 42.6705 47.7103 42.5182 47.8053V47.806ZM45.1522 45.6849C45.0143 44.481 44.6155 43.3217 43.9837 42.2877L42.9609 39.0141L43.4227 37.6684L44.6141 38.0783L46.7039 43.9798L46.9779 47.2664C46.256 46.8861 45.6313 46.3447 45.1522 45.6842V45.6849ZM54.7593 46.897L55.1326 40.5772C55.143 40.3996 55.0911 40.2239 54.9857 40.0804C54.8804 39.937 54.7282 39.8349 54.5555 39.7918L54.4701 39.7689L55.0043 35.5008L57.3178 36.4266L55.4333 46.3261C55.2246 46.5342 54.9992 46.7249 54.7593 46.8962V46.897Z" fill="#464A51"/>
<path d="M34.5246 43.5852C34.9461 43.5852 35.2879 43.2435 35.2879 42.822C35.2879 42.4004 34.9461 42.0587 34.5246 42.0587C34.1031 42.0587 33.7614 42.4004 33.7614 42.822C33.7614 43.2435 34.1031 43.5852 34.5246 43.5852Z" fill="#464A51"/>
<path d="M31.4716 42.822C31.8931 42.822 32.2348 42.4802 32.2348 42.0587C32.2348 41.6372 31.8931 41.2955 31.4716 41.2955C31.05 41.2955 30.7083 41.6372 30.7083 42.0587C30.7083 42.4802 31.05 42.822 31.4716 42.822Z" fill="#464A51"/>
<path d="M29.1818 44.3485C29.6033 44.3485 29.9451 44.0068 29.9451 43.5852C29.9451 43.1637 29.6033 42.822 29.1818 42.822C28.7603 42.822 28.4185 43.1637 28.4185 43.5852C28.4185 44.0068 28.7603 44.3485 29.1818 44.3485Z" fill="#464A51"/>
<path d="M40.6307 44.3485C41.0522 44.3485 41.3939 44.0068 41.3939 43.5852C41.3939 43.1637 41.0522 42.822 40.6307 42.822C40.2092 42.822 39.8674 43.1637 39.8674 43.5852C39.8674 44.0068 40.2092 44.3485 40.6307 44.3485Z" fill="#464A51"/>
<path d="M26.1288 43.5852C26.5503 43.5852 26.8921 43.2435 26.8921 42.822C26.8921 42.4004 26.5503 42.0587 26.1288 42.0587C25.7073 42.0587 25.3655 42.4004 25.3655 42.822C25.3655 43.2435 25.7073 43.5852 26.1288 43.5852Z" fill="#464A51"/>
<path d="M37.5776 42.822C37.9992 42.822 38.3409 42.4802 38.3409 42.0587C38.3409 41.6372 37.9992 41.2955 37.5776 41.2955C37.1561 41.2955 36.8144 41.6372 36.8144 42.0587C36.8144 42.4802 37.1561 42.822 37.5776 42.822Z" fill="#464A51"/>
</svg>
